<?xml version="1.0" standalone="no"?>
<!DOCTYPE svg PUBLIC "-//W3C//DTD SVG 20010904//EN"
 "http://www.w3.org/TR/2001/REC-SVG-20010904/DTD/svg10.dtd">
<svg version="1.0" xmlns="http://www.w3.org/2000/svg"
 width="500.000000pt" height="500.000000pt" viewBox="0 0 500.000000 500.000000"
 preserveAspectRatio="xMidYMid meet">

<g transform="translate(0.000000,500.000000) scale(0.100000,-0.100000)"
fill="#000000" stroke="none">
<path d="M2155 3833 c-149 -20 -310 -124 -393 -256 -121 -192 -128 -410 -20
-605 41 -75 182 -214 245 -242 110 -50 123 -51 445 -56 344 -6 357 -4 384 61
23 56 18 91 -20 133 l-34 37 -304 5 -303 5 -55 27 c-102 49 -166 127 -194 236
-21 80 -20 117 5 198 18 57 31 77 82 129 81 81 143 105 265 105 149 0 212 33
212 111 0 94 -39 120 -182 118 -56 -1 -116 -4 -133 -6z"/>
<path d="M2202 3364 c-67 -34 -90 -100 -58 -163 30 -56 25 -56 350 -61 299 -6
301 -6 359 -32 69 -32 160 -120 187 -181 81 -182 -23 -413 -214 -475 -64 -21
-83 -22 -447 -22 -407 0 -428 -2 -463 -51 -9 -13 -16 -41 -16 -62 0 -31 7 -46
34 -73 l34 -34 414 0 c455 0 475 2 598 62 87 42 203 159 247 248 114 228 73
497 -102 675 -34 34 -84 75 -111 90 -27 15 -60 35 -74 44 -55 35 -121 42 -415
47 -258 4 -294 3 -323 -12z"/>
</g>
</svg>
